<svg xmlns="http://www.w3.org/2000/svg"
 xmlns:xlink="http://www.w3.org/1999/xlink"
 width="400px" height="169px"  viewBox="0 0 400 169">
<path fill-rule="evenodd"  fill="#ffffff"
 d="M11.999939,1.9997559 C11.999939,1.9997559 388.99988,1.9997559 388.99988,1.9997559 C394.52277,1.9997559 398.99994,6.477051 398.99994,11.999512 C398.99994,11.999512 398.99994,138.0 398.99994,138.0 C398.99994,143.52246 394.52277,148.0 388.99988,148.0 C388.99988,148.0 11.999939,148.0 11.999939,148.0 C6.477051,148.0 1.9998932,143.52246 1.9998932,138.0 C1.9998932,138.0 1.9998932,11.999512 1.9998932,11.999512 C1.9998932,6.477051 6.477051,1.9997559 11.999939,1.9997559 ZM106.99991,148.0 C106.99991,148.0 84.99992,167.99976 84.99992,167.99976 C84.99992,167.99976 84.99992,148.0 84.99992,148.0 C84.99992,148.0 106.99991,148.0 106.99991,148.0 Z"/>
</svg>